# WaveFront *.obj file (generated by Cinema 4D)

v -3.122370 3.701594 -56.300945
v -3.122370 33.701594 -56.300945
v 60.877630 33.701594 -56.300945
v 60.877630 3.701594 -56.300945
v 60.877630 33.701594 -57.600945
v 60.877630 3.701594 -57.600945
v -3.122370 33.701594 -57.600945
v -3.122370 3.701594 -57.600945
# 8 vertices

vn 0.000000 0.000000 1.000000
vn 1.000000 0.000000 0.000000
vn 0.000000 0.000000 -1.000000
vn -1.000000 0.000000 0.000000
vn 0.000000 1.000000 0.000000
vn 0.000000 -1.000000 0.000000
# 6 normals

vt 0.000000 0.000000 0.000000
vt 0.000000 1.000000 0.000000
vt 1.000000 1.000000 0.000000
vt 1.000000 0.000000 0.000000
# 4 texture coordinates

o ????
usemtl default
f 4/4/1 3/3/1 2/2/1 1/1/1
f 6/4/2 5/3/2 3/2/2 4/1/2
f 8/4/3 7/3/3 5/2/3 6/1/3
f 1/4/4 2/3/4 7/2/4 8/1/4
f 3/4/5 5/3/5 7/2/5 2/1/5
f 6/4/6 4/3/6 1/2/6 8/1/6

